<svg xmlns="http://www.w3.org/2000/svg" xmlns:xlink="http://www.w3.org/1999/xlink" width="375" viewBox="0 0 375 375" height="375" version="1.0"><defs><clipPath id="a"><path d="M 20.453125 0 L 354.203125 0 L 354.203125 375 L 20.453125 375 Z M 20.453125 0"/></clipPath><clipPath id="b"><path d="M 209.238281 24.550781 L 326.035156 92.058594 C 328.402344 90.40625 331.289062 89.453125 334.390625 89.453125 C 336.359375 89.453125 338.265625 89.847656 340.003906 90.582031 C 341.8125 91.324219 343.421875 92.417969 344.773438 93.769531 C 346.113281 95.109375 347.203125 96.734375 347.957031 98.542969 C 348.675781 100.292969 349.085938 102.191406 349.085938 104.164062 C 349.085938 106.136719 348.6875 108.046875 347.957031 109.785156 C 347.214844 111.59375 346.125 113.207031 344.773438 114.558594 C 343.78125 115.550781 342.640625 116.40625 341.390625 117.089844 L 341.378906 117.078125 C 341.15625 117.203125 340.917969 117.3125 340.695312 117.425781 L 340.695312 252.363281 C 341.476562 252.699219 342.269531 253.097656 343.050781 253.554688 C 345.652344 255.058594 347.847656 257.03125 349.582031 259.289062 C 351.378906 261.632812 352.679688 264.285156 353.421875 267.089844 C 356.582031 278.875 349.558594 291.230469 337.660156 294.40625 C 334.871094 295.148438 331.921875 295.359375 328.984375 294.964844 C 326.542969 294.640625 324.117188 293.910156 321.796875 292.730469 L 321.710938 292.730469 L 320.730469 292.171875 C 319.964844 291.726562 319.21875 291.230469 318.5 290.695312 L 205.074219 356.242188 C 205.101562 356.589844 205.101562 356.925781 205.101562 357.273438 C 205.101562 359.65625 204.617188 361.9375 203.75 364.046875 L 203.75 364.058594 C 202.84375 366.242188 201.53125 368.191406 199.90625 369.816406 C 198.296875 371.425781 196.339844 372.742188 194.15625 373.648438 C 192.050781 374.515625 189.769531 375 187.378906 375 C 185 375 182.707031 374.515625 180.601562 373.648438 C 178.40625 372.742188 176.460938 371.425781 174.851562 369.816406 C 173.238281 368.203125 171.925781 366.242188 171.019531 364.058594 C 170.152344 361.960938 169.671875 359.667969 169.671875 357.273438 C 169.671875 357 169.683594 356.726562 169.695312 356.441406 L 56.242188 290.871094 C 55.488281 291.441406 54.695312 291.972656 53.878906 292.445312 L 53.863281 292.457031 L 53.851562 292.457031 L 53.839844 292.445312 C 51.226562 293.945312 48.4375 294.863281 45.625 295.238281 C 42.6875 295.621094 39.738281 295.421875 36.960938 294.679688 C 34.160156 293.933594 31.496094 292.632812 29.167969 290.832031 C 26.925781 289.109375 24.953125 286.902344 23.441406 284.269531 L 23.417969 284.222656 L 23.40625 284.234375 C 21.917969 281.640625 21.011719 278.851562 20.640625 276.019531 C 20.257812 273.082031 20.46875 270.140625 21.210938 267.363281 C 21.953125 264.558594 23.253906 261.90625 25.050781 259.558594 C 26.773438 257.316406 28.980469 255.34375 31.609375 253.828125 L 32.585938 253.269531 L 32.636719 253.269531 C 33.019531 253.074219 33.40625 252.886719 33.765625 252.726562 L 33.765625 117.722656 C 33.441406 117.585938 33.132812 117.449219 32.824219 117.289062 C 31.371094 116.570312 30.082031 115.625 29.003906 114.546875 C 27.667969 113.207031 26.589844 111.59375 25.832031 109.769531 C 25.113281 108.023438 24.707031 106.125 24.707031 104.152344 C 24.707031 102.191406 25.101562 100.292969 25.832031 98.542969 L 25.832031 98.53125 C 26.578125 96.734375 27.667969 95.109375 29.019531 93.769531 C 31.671875 91.113281 35.351562 89.464844 39.402344 89.464844 C 41.375 89.464844 43.28125 89.859375 45.015625 90.59375 C 46.105469 91.039062 47.125 91.621094 48.050781 92.292969 L 164.898438 24.761719 C 164.8125 23.964844 164.761719 23.148438 164.761719 22.328125 C 164.761719 19.339844 165.371094 16.449219 166.460938 13.808594 L 166.460938 13.792969 C 168.429688 9.019531 170.722656 7.035156 174.480469 3.921875 C 175.742188 3.050781 177.105469 2.320312 178.53125 1.722656 C 181.171875 0.632812 184.058594 0.0234375 187.058594 0.0234375 C 190.042969 0.0234375 192.929688 0.632812 195.570312 1.722656 L 195.582031 1.722656 C 198.320312 2.851562 200.773438 4.515625 202.820312 6.5625 C 204.863281 8.609375 206.523438 11.066406 207.652344 13.808594 L 207.652344 13.820312 C 208.742188 16.460938 209.351562 19.339844 209.351562 22.339844 C 209.351562 23.085938 209.3125 23.828125 209.238281 24.574219 Z M 30.332031 275.636719 Z M 55.574219 273.898438 C 56.332031 258.953125 34.867188 255.28125 30.628906 269.644531 C 30.382812 270.613281 30.234375 271.617188 30.183594 272.621094 C 30.132812 273.628906 30.183594 274.644531 30.332031 275.648438 C 33.121094 290.335938 54.832031 288.847656 55.574219 273.914062 Z M 174.628906 21.597656 C 174.578125 22.601562 174.628906 23.617188 174.777344 24.625 C 175.382812 27.785156 177.105469 30.480469 179.496094 32.328125 C 181.890625 34.175781 184.9375 35.179688 188.160156 34.96875 C 191.382812 34.746094 194.269531 33.34375 196.386719 31.1875 C 198.507812 29.027344 199.871094 26.113281 200.03125 22.886719 C 200.191406 19.660156 199.140625 16.621094 197.242188 14.265625 C 195.347656 11.894531 192.621094 10.210938 189.449219 9.664062 C 186.265625 9.117188 183.128906 9.8125 180.5625 11.414062 C 178 13.011719 176.003906 15.53125 175.085938 18.621094 C 174.839844 19.585938 174.691406 20.59375 174.640625 21.597656 Z M 319.28125 272.289062 C 319.234375 273.292969 319.28125 274.308594 319.429688 275.3125 C 320.039062 278.476562 321.761719 281.167969 324.152344 283.019531 C 326.542969 284.867188 329.59375 285.871094 332.816406 285.660156 C 336.035156 285.4375 338.925781 284.035156 341.042969 281.875 C 343.164062 279.71875 344.527344 276.804688 344.6875 273.578125 C 344.847656 270.351562 343.792969 267.3125 341.898438 264.957031 C 340.003906 262.585938 337.277344 260.898438 334.105469 260.355469 C 330.917969 259.808594 327.785156 260.503906 325.21875 262.101562 C 322.652344 263.703125 320.65625 266.222656 319.742188 269.308594 C 319.492188 270.277344 319.34375 271.28125 319.296875 272.289062 Z M 53.742188 100.988281 C 53.964844 102.019531 54.085938 103.074219 54.085938 104.152344 C 54.085938 106.125 53.691406 108.035156 52.960938 109.769531 C 52.214844 111.582031 51.125 113.195312 49.773438 114.546875 C 48.535156 115.789062 47.074219 116.804688 45.4375 117.546875 C 45.027344 117.734375 44.621094 117.894531 44.1875 118.046875 L 44.1875 250.890625 C 45.027344 250.9375 45.847656 251.050781 46.664062 251.1875 L 170.226562 36.953125 C 169.597656 36.234375 169.015625 35.464844 168.492188 34.683594 L 53.726562 101.011719 Z M 168.046875 191.394531 L 168.382812 191.570312 L 168.394531 191.570312 C 169.125 191.953125 169.820312 192.398438 170.464844 192.894531 L 246.054688 149.207031 C 245.882812 148.3125 245.796875 147.40625 245.796875 146.515625 C 245.796875 144.554688 246.191406 142.65625 246.925781 140.90625 L 246.925781 140.894531 C 247.59375 139.269531 248.535156 137.804688 249.699219 136.554688 L 195.683594 42.894531 C 195 43.179688 194.304688 43.441406 193.601562 43.652344 L 193.585938 43.652344 C 192.015625 44.136719 190.390625 44.445312 188.730469 44.582031 L 168.058594 191.40625 Z M 175.929688 201.726562 C 176.113281 202.660156 176.203125 203.601562 176.203125 204.558594 L 176.203125 204.929688 L 313.445312 260.367188 C 314.375 258.976562 315.429688 257.738281 316.582031 256.644531 C 317.101562 256.160156 317.632812 255.691406 318.191406 255.253906 L 263.742188 160.84375 C 262.699219 161.078125 261.609375 161.203125 260.507812 161.203125 C 258.535156 161.203125 256.628906 160.804688 254.890625 160.074219 C 253.640625 159.550781 252.488281 158.882812 251.460938 158.074219 L 175.953125 201.714844 Z M 172.273438 214.554688 C 172.148438 214.691406 172.023438 214.828125 171.902344 214.953125 C 169.25 217.605469 165.570312 219.257812 161.515625 219.257812 C 159.546875 219.257812 157.636719 218.859375 155.902344 218.128906 C 154.402344 217.507812 153.039062 216.664062 151.863281 215.632812 L 63.988281 266.421875 C 64.175781 267.003906 64.335938 267.585938 64.472656 268.179688 L 64.472656 268.195312 C 64.585938 268.691406 64.683594 269.175781 64.757812 269.671875 L 308.6875 269.671875 L 172.273438 214.566406 Z M 146.957031 206.480469 C 146.867188 205.835938 146.820312 205.1875 146.820312 204.558594 C 146.820312 202.597656 147.214844 200.699219 147.945312 198.949219 L 147.945312 198.9375 C 148.691406 197.136719 149.78125 195.511719 151.132812 194.175781 C 152.445312 192.859375 154.019531 191.792969 155.777344 191.046875 C 156.398438 190.789062 157.03125 190.5625 157.6875 190.390625 L 178.34375 43.628906 L 56.21875 255.378906 C 56.578125 255.652344 56.914062 255.925781 57.261719 256.222656 C 57.742188 256.632812 58.203125 257.078125 58.660156 257.539062 L 146.96875 206.503906 Z M 260.480469 131.8125 C 262.453125 131.8125 264.359375 132.210938 266.09375 132.941406 C 267.902344 133.6875 269.515625 134.777344 270.867188 136.132812 C 272.203125 137.472656 273.292969 139.097656 274.050781 140.90625 C 274.769531 142.65625 275.179688 144.554688 275.179688 146.527344 C 275.179688 148.5 274.78125 150.410156 274.050781 152.144531 C 273.605469 153.210938 273.046875 154.207031 272.390625 155.125 L 327.660156 250.949219 C 328.515625 250.789062 329.382812 250.664062 330.261719 250.605469 L 330.261719 118.257812 C 329.753906 118.105469 329.246094 117.921875 328.761719 117.722656 C 326.941406 116.964844 325.328125 115.875 323.992188 114.546875 C 322.652344 113.207031 321.574219 111.59375 320.820312 109.769531 C 320.101562 108.023438 319.691406 106.125 319.691406 104.152344 C 319.691406 102.960938 319.839844 101.78125 320.125 100.640625 L 205.707031 34.511719 L 204.132812 36.769531 L 258.992188 131.890625 C 259.488281 131.839844 259.984375 131.816406 260.480469 131.816406 Z M 63.914062 280.089844 C 63.628906 280.957031 63.28125 281.828125 62.875 282.683594 L 173.175781 346.429688 L 174.886719 344.71875 C 178.097656 341.507812 182.519531 339.523438 187.417969 339.523438 C 189.785156 339.523438 192.074219 340.003906 194.183594 340.875 L 194.195312 340.875 C 196.375 341.78125 198.320312 343.09375 199.945312 344.71875 C 200.453125 345.226562 200.949219 345.785156 201.394531 346.371094 L 311.835938 282.546875 C 311.449219 281.738281 311.105469 280.921875 310.820312 280.089844 Z M 63.914062 280.089844"/></clipPath><linearGradient x1="15.769" gradientTransform="matrix(1.23923 0 0 1.24049 20.468 0)" xmlns:xlink="http://www.w3.org/1999/xlink" y1="314.836" x2="267.203" gradientUnits="userSpaceOnUse" y2="-1.654" xlink:type="simple" xlink:actuate="onLoad" id="c" xlink:show="other"><stop stop-color="#BD04CD" offset="0"/><stop stop-color="#BC05CD" offset=".004"/><stop stop-color="#BA06CD" offset=".008"/><stop stop-color="#B907CD" offset=".012"/><stop stop-color="#B808CE" offset=".016"/><stop stop-color="#B709CE" offset=".02"/><stop stop-color="#B60ACE" offset=".023"/><stop stop-color="#B40BCE" offset=".027"/><stop stop-color="#B30DCE" offset=".031"/><stop stop-color="#B20ECF" offset=".035"/><stop stop-color="#B10FCF" offset=".039"/><stop stop-color="#B010CF" offset=".043"/><stop stop-color="#AE11CF" offset=".047"/><stop stop-color="#AD12D0" offset=".051"/><stop stop-color="#AC13D0" offset=".055"/><stop stop-color="#AB14D0" offset=".059"/><stop stop-color="#AA15D0" offset=".063"/><stop stop-color="#A816D0" offset=".066"/><stop stop-color="#A717D1" offset=".07"/><stop stop-color="#A618D1" offset=".074"/><stop stop-color="#A51AD1" offset=".078"/><stop stop-color="#A41BD1" offset=".082"/><stop stop-color="#A21CD1" offset=".086"/><stop stop-color="#A11DD2" offset=".09"/><stop stop-color="#A01ED2" offset=".094"/><stop stop-color="#9F1FD2" offset=".098"/><stop stop-color="#9E20D2" offset=".102"/><stop stop-color="#9C21D3" offset=".105"/><stop stop-color="#9B22D3" offset=".109"/><stop stop-color="#9A23D3" offset=".113"/><stop stop-color="#9924D3" offset=".117"/><stop stop-color="#9825D3" offset=".121"/><stop stop-color="#9627D4" offset=".125"/><stop stop-color="#9528D4" offset=".129"/><stop stop-color="#9429D4" offset=".133"/><stop stop-color="#932AD4" offset=".137"/><stop stop-color="#922BD4" offset=".141"/><stop stop-color="#902CD5" offset=".145"/><stop stop-color="#8F2DD5" offset=".148"/><stop stop-color="#8E2ED5" offset=".152"/><stop stop-color="#8D2FD5" offset=".156"/><stop stop-color="#8C30D5" offset=".16"/><stop stop-color="#8A31D6" offset=".164"/><stop stop-color="#8933D6" offset=".168"/><stop stop-color="#8834D6" offset=".172"/><stop stop-color="#8735D6" offset=".176"/><stop stop-color="#8636D7" offset=".18"/><stop stop-color="#8437D7" offset=".184"/><stop stop-color="#8338D7" offset=".188"/><stop stop-color="#8239D7" offset=".191"/><stop stop-color="#813AD7" offset=".195"/><stop stop-color="#803BD8" offset=".199"/><stop stop-color="#7E3CD8" offset=".203"/><stop stop-color="#7D3DD8" offset=".207"/><stop stop-color="#7C3ED8" offset=".211"/><stop stop-color="#7B40D8" offset=".215"/><stop stop-color="#7A41D9" offset=".219"/><stop stop-color="#7842D9" offset=".223"/><stop stop-color="#7743D9" offset=".227"/><stop stop-color="#7644D9" offset=".23"/><stop stop-color="#7545DA" offset=".234"/><stop stop-color="#7446DA" offset=".238"/><stop stop-color="#7247DA" offset=".242"/><stop stop-color="#7148DA" offset=".246"/><stop stop-color="#7049DA" offset=".25"/><stop stop-color="#6F4ADB" offset=".254"/><stop stop-color="#6E4BDB" offset=".258"/><stop stop-color="#6C4DDB" offset=".262"/><stop stop-color="#6B4EDB" offset=".266"/><stop stop-color="#6A4FDB" offset=".27"/><stop stop-color="#6950DC" offset=".273"/><stop stop-color="#6851DC" offset=".277"/><stop stop-color="#6652DC" offset=".281"/><stop stop-color="#6553DC" offset=".285"/><stop stop-color="#6454DD" offset=".289"/><stop stop-color="#6355DD" offset=".293"/><stop stop-color="#6256DD" offset=".297"/><stop stop-color="#6157DD" offset=".301"/><stop stop-color="#5F58DD" offset=".305"/><stop stop-color="#5E59DE" offset=".309"/><stop stop-color="#5D5ADE" offset=".313"/><stop stop-color="#5C5BDE" offset=".316"/><stop stop-color="#5B5CDE" offset=".32"/><stop stop-color="#5A5DDE" offset=".324"/><stop stop-color="#595EDE" offset=".328"/><stop stop-color="#585FDF" offset=".332"/><stop stop-color="#5760DF" offset=".336"/><stop stop-color="#5661DF" offset=".34"/><stop stop-color="#5562DF" offset=".344"/><stop stop-color="#5462DF" offset=".348"/><stop stop-color="#5363E0" offset=".352"/><stop stop-color="#5264E0" offset=".355"/><stop stop-color="#5165E0" offset=".359"/><stop stop-color="#5066E0" offset=".363"/><stop stop-color="#4F67E0" offset=".367"/><stop stop-color="#4E68E1" offset=".371"/><stop stop-color="#4D69E1" offset=".375"/><stop stop-color="#4C6AE1" offset=".379"/><stop stop-color="#4B6BE1" offset=".383"/><stop stop-color="#4A6CE1" offset=".387"/><stop stop-color="#496DE1" offset=".391"/><stop stop-color="#486EE2" offset=".395"/><stop stop-color="#476FE2" offset=".398"/><stop stop-color="#466FE2" offset=".402"/><stop stop-color="#4570E2" offset=".406"/><stop stop-color="#4471E2" offset=".41"/><stop stop-color="#4372E3" offset=".414"/><stop stop-color="#4273E3" offset=".418"/><stop stop-color="#4174E3" offset=".422"/><stop stop-color="#4075E3" offset=".426"/><stop stop-color="#3F76E3" offset=".43"/><stop stop-color="#3E77E4" offset=".434"/><stop stop-color="#3D78E4" offset=".438"/><stop stop-color="#3C79E4" offset=".441"/><stop stop-color="#3B7AE4" offset=".445"/><stop stop-color="#3A7BE4" offset=".449"/><stop stop-color="#397CE5" offset=".453"/><stop stop-color="#387CE5" offset=".457"/><stop stop-color="#377DE5" offset=".461"/><stop stop-color="#367EE5" offset=".465"/><stop stop-color="#357FE5" offset=".469"/><stop stop-color="#3380E5" offset=".473"/><stop stop-color="#3281E6" offset=".477"/><stop stop-color="#3182E6" offset=".48"/><stop stop-color="#3083E6" offset=".484"/><stop stop-color="#2F84E6" offset=".488"/><stop stop-color="#2E85E6" offset=".492"/><stop stop-color="#2D86E7" offset=".496"/><stop stop-color="#2C87E7" offset=".5"/><stop stop-color="#2B88E7" offset=".504"/><stop stop-color="#2A89E7" offset=".508"/><stop stop-color="#2989E7" offset=".512"/><stop stop-color="#288AE8" offset=".516"/><stop stop-color="#278BE8" offset=".52"/><stop stop-color="#268CE8" offset=".523"/><stop stop-color="#258DE8" offset=".527"/><stop stop-color="#248EE8" offset=".531"/><stop stop-color="#238FE8" offset=".535"/><stop stop-color="#2290E9" offset=".539"/><stop stop-color="#2191E9" offset=".543"/><stop stop-color="#2092E9" offset=".547"/><stop stop-color="#1F93E9" offset=".551"/><stop stop-color="#1E94E9" offset=".555"/><stop stop-color="#1D95EA" offset=".559"/><stop stop-color="#1C96EA" offset=".563"/><stop stop-color="#1B96EA" offset=".566"/><stop stop-color="#1A97EA" offset=".57"/><stop stop-color="#1998EA" offset=".574"/><stop stop-color="#1899EB" offset=".578"/><stop stop-color="#179AEB" offset=".582"/><stop stop-color="#169BEB" offset=".586"/><stop stop-color="#159CEB" offset=".59"/><stop stop-color="#149DEB" offset=".594"/><stop stop-color="#139EEB" offset=".598"/><stop stop-color="#129FEC" offset=".602"/><stop stop-color="#11A0EC" offset=".605"/><stop stop-color="#10A1EC" offset=".609"/><stop stop-color="#0FA2EC" offset=".613"/><stop stop-color="#0EA3EC" offset=".617"/><stop stop-color="#0DA3ED" offset=".621"/><stop stop-color="#0CA4ED" offset=".625"/><stop stop-color="#0BA5ED" offset=".629"/><stop stop-color="#0AA6ED" offset=".633"/><stop stop-color="#09A7ED" offset=".637"/><stop stop-color="#08A8EE" offset=".641"/><stop stop-color="#06A9EE" offset=".645"/><stop stop-color="#05AAEE" offset=".648"/><stop stop-color="#04ABEE" offset=".652"/><stop stop-color="#03ACEE" offset=".656"/><stop stop-color="#02ADEE" offset=".66"/><stop stop-color="#01AEEF" offset=".664"/><stop stop-color="#01AFEF" offset=".668"/><stop stop-color="#00B0EF" offset=".672"/><stop stop-color="#00B0EF" offset=".676"/><stop stop-color="#00B1EF" offset=".68"/><stop stop-color="#00B2F0" offset=".684"/><stop stop-color="#00B3F0" offset=".688"/><stop stop-color="#00B4F0" offset=".691"/><stop stop-color="#00B5F0" offset=".695"/><stop stop-color="#00B6F0" offset=".699"/><stop stop-color="#00B7F0" offset=".703"/><stop stop-color="#00B7F1" offset=".707"/><stop stop-color="#00B8F1" offset=".711"/><stop stop-color="#00B9F1" offset=".715"/><stop stop-color="#00BAF1" offset=".719"/><stop stop-color="#00BBF1" offset=".723"/><stop stop-color="#00BCF2" offset=".727"/><stop stop-color="#00BDF2" offset=".73"/><stop stop-color="#00BEF2" offset=".734"/><stop stop-color="#00BFF2" offset=".738"/><stop stop-color="#00BFF2" offset=".742"/><stop stop-color="#00C0F2" offset=".746"/><stop stop-color="#00C1F3" offset=".75"/><stop stop-color="#00C2F3" offset=".754"/><stop stop-color="#00C3F3" offset=".758"/><stop stop-color="#00C4F3" offset=".762"/><stop stop-color="#00C5F3" offset=".766"/><stop stop-color="#00C6F3" offset=".77"/><stop stop-color="#00C7F4" offset=".773"/><stop stop-color="#00C7F4" offset=".777"/><stop stop-color="#00C8F4" offset=".781"/><stop stop-color="#00C9F4" offset=".785"/><stop stop-color="#00CAF4" offset=".789"/><stop stop-color="#00CBF5" offset=".793"/><stop stop-color="#00CCF5" offset=".797"/><stop stop-color="#00CDF5" offset=".801"/><stop stop-color="#00CEF5" offset=".805"/><stop stop-color="#00CEF5" offset=".809"/><stop stop-color="#00CFF5" offset=".813"/><stop stop-color="#00D0F6" offset=".816"/><stop stop-color="#00D1F6" offset=".82"/><stop stop-color="#00D2F6" offset=".824"/><stop stop-color="#00D3F6" offset=".828"/><stop stop-color="#00D4F6" offset=".832"/><stop stop-color="#00D5F7" offset=".836"/><stop stop-color="#00D6F7" offset=".84"/><stop stop-color="#00D6F7" offset=".844"/><stop stop-color="#00D7F7" offset=".848"/><stop stop-color="#00D8F7" offset=".852"/><stop stop-color="#00D9F7" offset=".855"/><stop stop-color="#00DAF8" offset=".859"/><stop stop-color="#00DBF8" offset=".863"/><stop stop-color="#00DCF8" offset=".867"/><stop stop-color="#00DDF8" offset=".871"/><stop stop-color="#00DEF8" offset=".875"/><stop stop-color="#00DEF8" offset=".879"/><stop stop-color="#00DFF9" offset=".883"/><stop stop-color="#00E0F9" offset=".887"/><stop stop-color="#00E1F9" offset=".891"/><stop stop-color="#00E2F9" offset=".895"/><stop stop-color="#00E3F9" offset=".898"/><stop stop-color="#00E4FA" offset=".902"/><stop stop-color="#00E5FA" offset=".906"/><stop stop-color="#00E5FA" offset=".91"/><stop stop-color="#00E6FA" offset=".914"/><stop stop-color="#00E7FA" offset=".918"/><stop stop-color="#00E8FA" offset=".922"/><stop stop-color="#00E9FB" offset=".926"/><stop stop-color="#00EAFB" offset=".93"/><stop stop-color="#00EBFB" offset=".934"/><stop stop-color="#00ECFB" offset=".938"/><stop stop-color="#00EDFB" offset=".941"/><stop stop-color="#00EDFB" offset=".945"/><stop stop-color="#00EEFC" offset=".949"/><stop stop-color="#00EFFC" offset=".953"/><stop stop-color="#00F0FC" offset=".957"/><stop stop-color="#00F1FC" offset=".961"/><stop stop-color="#00F2FC" offset=".965"/><stop stop-color="#00F3FD" offset=".969"/><stop stop-color="#00F4FD" offset=".973"/><stop stop-color="#00F5FD" offset=".977"/><stop stop-color="#00F5FD" offset=".98"/><stop stop-color="#00F6FD" offset=".984"/><stop stop-color="#00F7FD" offset=".988"/><stop stop-color="#00F8FE" offset=".992"/><stop stop-color="#00F9FE" offset=".996"/><stop stop-color="#00FAFE" offset="1"/></linearGradient></defs><g clip-path="url(#a)"><g clip-path="url(#b)"><path fill="url(#c)" d="M 20.453125 0.0234375 L 20.453125 375 L 354.203125 375 L 354.203125 0.0234375 Z M 20.453125 0.0234375"/></g></g></svg>